<?xml version="1.0" encoding="utf-8"?>
<!-- Generator: Adobe Illustrator 16.0.4, SVG Export Plug-In . SVG Version: 6.00 Build 0)  -->
<!DOCTYPE svg PUBLIC "-//W3C//DTD SVG 1.1//EN" "http://www.w3.org/Graphics/SVG/1.1/DTD/svg11.dtd">
<svg version="1.1" xmlns="http://www.w3.org/2000/svg" xmlns:xlink="http://www.w3.org/1999/xlink" x="0px" y="0px" width="80px"
	 height="80px" viewBox="0 0 80 80" enable-background="new 0 0 80 80" xml:space="preserve">
<g id="Layer_1" display="none">
</g>
<g id="Layer_8" display="none">
	<rect y="-0.833" display="inline" width="80" height="81.666"/>
</g>
<g id="Layer_1_copy_2">
</g>
<g id="Layer_1_copy_7">
</g>
<g id="Layer_1_copy_6">
</g>
<g id="Layer_1_copy_5">
</g>
<g id="Layer_1_copy_4">
	<g>
		<path fill="#FFFFFF" d="M26.004,47.332H49.33c0.088,0,0.219-0.043,0.398-0.131h0.264v6.129c0,1.775-0.641,3.33-1.93,4.664
			c-1.291,1.332-2.865,2-4.734,2H26.67l-9.998,9.994v-9.994h-3.328c-1.781,0-3.334-0.668-4.668-2
			C7.342,56.66,6.68,55.105,6.68,53.33V33.338c0-1.867,0.662-3.446,1.996-4.732c1.334-1.288,2.887-1.932,4.668-1.932h12.66V47.332z
			 M66.652,10.012c1.869,0,3.445,0.645,4.736,1.933c1.287,1.288,1.932,2.867,1.932,4.733V36.67c0,1.773-0.645,3.329-1.932,4.664
			c-1.291,1.33-2.867,1.998-4.736,1.998h-3.326v9.998l-9.998-9.998H30.004V16.678c0-1.866,0.662-3.445,1.996-4.733
			c1.332-1.288,2.891-1.933,4.666-1.933H66.652z"/>
	</g>
</g>
<g id="Layer_1_copy_3">
</g>
</svg>
