<?xml version="1.0" encoding="utf-8"?>
<!-- Generator: Adobe Illustrator 16.0.4, SVG Export Plug-In . SVG Version: 6.00 Build 0)  -->
<!DOCTYPE svg PUBLIC "-//W3C//DTD SVG 1.1//EN" "http://www.w3.org/Graphics/SVG/1.1/DTD/svg11.dtd">
<svg version="1.1" xmlns="http://www.w3.org/2000/svg" xmlns:xlink="http://www.w3.org/1999/xlink" x="0px" y="0px" width="80px"
	 height="80px" viewBox="0 0 80 80" enable-background="new 0 0 80 80" xml:space="preserve">
<g id="Layer_1" display="none">
	<text transform="matrix(1 0 0 1 7.1196 25.7139)" display="inline" font-family="'fontello'" font-size="12"></text>
	<text transform="matrix(1 0 0 1 23.3525 24.5342)" display="inline" font-family="'fontello'" font-size="12"></text>
	<text transform="matrix(1 0 0 1 6.623 40.7622)" display="inline" font-family="'fontello'" font-size="12"></text>
	<text transform="matrix(1 0 0 1 45.9229 22.166)" display="inline" font-family="'fontello'" font-size="12"></text>
	<text transform="matrix(1 0 0 1 25.373 40.9517)" display="inline" font-family="'fontello'" font-size="12"></text>
	<text transform="matrix(1 0 0 1 47.2207 44.0625)" display="inline" font-family="'fontello'" font-size="12"></text>
	<text transform="matrix(1 0 0 1 13.9932 63.8516)" display="inline" font-family="'FontAwesome5FreeSolid'" font-size="12"></text>
</g>
<g id="Layer_8" display="none">
	<rect y="-1.667" display="inline" width="80" height="81.667"/>
</g>
<g id="Layer_1_copy_2">
</g>
<g id="Layer_1_copy_7">
</g>
<g id="Layer_1_copy_6">
</g>
<g id="Layer_1_copy_5">
</g>
<g id="Layer_1_copy_4">
</g>
<g id="Layer_1_copy_3">
	<g>
		<path fill="#FFFFFF" d="M74.363,30.377v30.451c0,1.694-0.599,3.134-1.785,4.325c-1.196,1.192-2.641,1.81-4.332,1.857H11.755
			c-1.647,0-3.091-0.619-4.332-1.857c-1.236-1.233-1.831-2.68-1.787-4.325V30.377c1.149,1.236,2.427,2.362,3.851,3.366
			c9.254,6.282,15.625,10.682,19.101,13.202c1.467,1.094,2.636,1.945,3.509,2.538c0.869,0.599,2.088,1.215,3.641,1.855
			c1.56,0.644,2.961,0.939,4.196,0.898h0.133c1.286,0,2.686-0.3,4.196-0.898c1.51-0.592,2.724-1.211,3.641-1.855
			c0.916-0.637,2.087-1.487,3.511-2.538c4.348-3.115,10.72-7.519,19.1-13.202C71.98,32.739,73.258,31.613,74.363,30.377z
			 M74.363,19.107c0,2.021-0.619,3.943-1.855,5.771c-1.235,1.835-2.795,3.42-4.667,4.743c-9.629,6.69-15.632,10.841-18.014,12.439
			l-3.641,2.68c-0.544,0.415-1.216,0.825-1.99,1.242c-0.785,0.409-1.517,0.753-2.202,1.03c-0.692,0.272-1.33,0.389-1.927,0.339
			h-0.133c-0.555,0-1.169-0.113-1.856-0.339c-0.692-0.231-1.422-0.573-2.202-1.03l-2.061-1.242c-0.591-0.365-1.285-0.867-2.065-1.51
			c-0.78-0.645-1.301-1.029-1.576-1.17l-10.111-6.939c-4.393-3.026-7.008-4.854-7.826-5.5c-1.607-1.052-3.092-2.514-4.471-4.396
			c-1.371-1.877-2.085-3.646-2.13-5.296c0-1.968,0.527-3.618,1.582-4.944c1.054-1.331,2.564-1.997,4.536-1.997h56.491
			c1.648,0,3.093,0.598,4.332,1.791C73.814,15.972,74.408,17.414,74.363,19.107z"/>
	</g>
</g>
</svg>
