<?xml version="1.0" encoding="utf-8"?>
<!-- Generator: Adobe Illustrator 16.0.4, SVG Export Plug-In . SVG Version: 6.00 Build 0)  -->
<!DOCTYPE svg PUBLIC "-//W3C//DTD SVG 1.1//EN" "http://www.w3.org/Graphics/SVG/1.1/DTD/svg11.dtd">
<svg version="1.1" xmlns="http://www.w3.org/2000/svg" xmlns:xlink="http://www.w3.org/1999/xlink" x="0px" y="0px" width="80px"
	 height="80px" viewBox="0 0 80 80" enable-background="new 0 0 80 80" xml:space="preserve">
<g id="Layer_1" display="none">
</g>
<g id="Layer_8" display="none">
	<rect y="-0.834" display="inline" width="80" height="81.668"/>
</g>
<g id="Layer_1_copy_2">
</g>
<g id="Layer_1_copy_7">
	<g>
		<path fill="#FFFFFF" d="M11.7,24.814c0-1.908,0.533-3.363,1.605-4.357l7.902-7.902c1.721-1.41,3.186-1.162,4.41,0.746
			l6.474,12.085c0.686,1.489,0.418,2.845-0.801,4.065L28.37,32.43c-0.195,0.232-0.288,0.498-0.288,0.801
			c0.954,3.745,3.474,7.468,7.562,11.17l3.836,3.669c1.376,1.3,2.026,1.792,1.949,1.49c-0.078-0.306,0.706,0.169,2.348,1.429
			c1.642,1.262,2.404,1.526,2.292,0.805c0.762,0.227,1.277,0.189,1.543-0.114l3.496-3.438c1.489-1.145,2.865-1.372,4.127-0.689
			l11.625,6.933c0.839,0.536,1.318,1.243,1.432,2.12c0.113,0.881-0.136,1.621-0.745,2.232l-8.076,7.963
			c-1.028,1.028-2.443,1.546-4.235,1.546c-5.35-0.151-11.42-2.46-18.214-6.931c-9.854-7.062-17.014-14.813-21.482-23.256
			C12.789,32.394,11.511,27.943,11.7,24.814z"/>
	</g>
</g>
<g id="Layer_1_copy_6">
</g>
<g id="Layer_1_copy_5">
</g>
<g id="Layer_1_copy_4">
</g>
<g id="Layer_1_copy_3">
</g>
</svg>
