<?xml version="1.0" encoding="utf-8"?>
<!-- Generator: Adobe Illustrator 16.0.4, SVG Export Plug-In . SVG Version: 6.00 Build 0)  -->
<!DOCTYPE svg PUBLIC "-//W3C//DTD SVG 1.1//EN" "http://www.w3.org/Graphics/SVG/1.1/DTD/svg11.dtd">
<svg version="1.1" xmlns="http://www.w3.org/2000/svg" xmlns:xlink="http://www.w3.org/1999/xlink" x="0px" y="0px" width="80px"
	 height="80px" viewBox="0 0 80 80" enable-background="new 0 0 80 80" xml:space="preserve">
<g id="Layer_1" display="none">
</g>
<g id="Layer_8" display="none">
	<rect y="-0.833" display="inline" width="80" height="81.667"/>
</g>
<g id="Layer_1_copy_2">
</g>
<g id="Layer_1_copy_7">
</g>
<g id="Layer_1_copy_6">
</g>
<g id="Layer_1_copy_5">
	<g>
		<path fill="#FFFFFF" d="M75.738,37.821c0,5.091-1.596,9.8-4.789,14.122c-3.195,4.329-7.537,7.759-13.031,10.308
			c-5.502,2.551-11.486,3.801-17.947,3.759c-4.934,0-9.66-0.786-14.189-2.366l0.125,0.184L4.262,70.313
			c1.777-2.386,3.215-4.932,4.307-7.636c1.088-2.712,1.715-4.855,1.879-6.432l0.24-2.302c-4.283-4.85-6.426-10.224-6.426-16.123
			c0-5.093,1.596-9.804,4.791-14.128c3.193-4.323,7.537-7.739,13.033-10.247c5.496-2.504,11.455-3.76,17.885-3.76
			c6.426,0,12.408,1.256,17.947,3.76c5.533,2.508,9.881,5.924,13.031,10.247C74.104,28.018,75.701,32.729,75.738,37.821z
			 M30.27,37.821c0-1.178-0.424-2.184-1.273-3.037c-0.848-0.848-1.869-1.271-3.059-1.271c-1.195,0-2.215,0.424-3.062,1.271
			c-0.85,0.854-1.273,1.873-1.273,3.064s0.424,2.217,1.273,3.064c0.848,0.848,1.867,1.271,3.062,1.271
			c1.189,0,2.211-0.424,3.059-1.271C29.846,40.065,30.27,39.032,30.27,37.821z M45.426,37.821c0-1.178-0.422-2.184-1.271-3.037
			c-0.848-0.848-1.873-1.271-3.061-1.271c-1.193,0-2.213,0.424-3.062,1.271c-0.85,0.854-1.273,1.873-1.273,3.064
			s0.424,2.217,1.273,3.064s1.869,1.271,3.062,1.271c1.188,0,2.213-0.424,3.061-1.271C45.004,40.065,45.426,39.032,45.426,37.821z
			 M60.584,37.821c0-1.178-0.424-2.184-1.277-3.037c-0.848-0.848-1.867-1.271-3.059-1.271s-2.211,0.424-3.061,1.271
			c-0.852,0.854-1.275,1.873-1.275,3.064s0.424,2.217,1.275,3.064c0.85,0.848,1.869,1.271,3.061,1.271s2.211-0.424,3.059-1.271
			C60.16,40.065,60.584,39.032,60.584,37.821z"/>
	</g>
</g>
<g id="Layer_1_copy_4">
</g>
<g id="Layer_1_copy_3">
</g>
</svg>
