<?xml version="1.0" encoding="utf-8"?>
<!-- Generator: Adobe Illustrator 16.0.4, SVG Export Plug-In . SVG Version: 6.00 Build 0)  -->
<!DOCTYPE svg PUBLIC "-//W3C//DTD SVG 1.1//EN" "http://www.w3.org/Graphics/SVG/1.1/DTD/svg11.dtd">
<svg version="1.1" xmlns="http://www.w3.org/2000/svg" xmlns:xlink="http://www.w3.org/1999/xlink" x="0px" y="0px" width="80px"
	 height="80px" viewBox="0 0 80 80" enable-background="new 0 0 80 80" xml:space="preserve">
<g id="Layer_1" display="none">
</g>
<g id="Layer_8" display="none">
	<rect y="-0.834" display="inline" width="80" height="81.667"/>
</g>
<g id="Layer_1_copy_2">
	<g>
		<path fill="#FFFFFF" d="M67.611,22.294c0.952,0,1.736,0.328,2.353,0.984c0.621,0.666,0.952,1.447,0.993,2.354V67.61
			c0,0.951-0.331,1.736-0.993,2.361c-0.657,0.613-1.441,0.943-2.353,0.984H34.489c-0.948,0-1.736-0.332-2.354-0.984
			c-0.616-0.67-0.947-1.451-0.99-2.361v-9.9H12.391c-0.954,0-1.74-0.33-2.357-0.992c-0.616-0.662-0.951-1.445-0.99-2.354V31.146
			c0-0.906,0.227-1.92,0.68-3.033c0.452-1.111,1.012-1.979,1.673-2.6l14.117-14.121c0.617-0.656,1.487-1.213,2.601-1.67
			c1.112-0.453,2.128-0.678,3.032-0.678h14.366c0.948,0,1.734,0.33,2.355,0.988c0.612,0.662,0.945,1.449,0.986,2.354v11.326
			c1.566-0.943,3.032-1.418,4.398-1.418H67.611z M33.5,38.761l10.894-10.895V13.438H31.146v14.428c0,0.906-0.311,1.67-0.93,2.287
			c-0.616,0.617-1.402,0.953-2.349,0.992H13.437v22.107h17.709v-8.855c0-0.906,0.229-1.92,0.681-3.031
			C32.281,40.247,32.841,39.378,33.5,38.761z M26.748,16.409L16.41,26.751h10.338V16.409z M66.562,66.562V26.751h-13.31v14.361
			c0,0.912-0.312,1.691-0.933,2.354c-0.619,0.658-1.398,0.973-2.354,0.932H35.606v22.164H66.562z M48.854,29.659l-10.341,10.34
			h10.341V29.659z"/>
	</g>
</g>
<g id="Layer_1_copy_7">
</g>
<g id="Layer_1_copy_6">
</g>
<g id="Layer_1_copy_5">
</g>
<g id="Layer_1_copy_4">
</g>
<g id="Layer_1_copy_3">
</g>
</svg>
