<?xml version="1.0" encoding="utf-8"?>
<!-- Generator: Adobe Illustrator 16.0.4, SVG Export Plug-In . SVG Version: 6.00 Build 0)  -->
<!DOCTYPE svg PUBLIC "-//W3C//DTD SVG 1.1//EN" "http://www.w3.org/Graphics/SVG/1.1/DTD/svg11.dtd">
<svg version="1.1" xmlns="http://www.w3.org/2000/svg" xmlns:xlink="http://www.w3.org/1999/xlink" x="0px" y="0px" width="80px"
	 height="80px" viewBox="0 0 80 80" enable-background="new 0 0 80 80" xml:space="preserve">
<g id="Layer_1" display="none">
</g>
<g id="Layer_8" display="none">
	<rect y="-0.833" display="inline" width="80" height="81.666"/>
</g>
<g id="Layer_1_copy_2">
</g>
<g id="Layer_1_copy_7">
</g>
<g id="Layer_1_copy_6">
	<g>
		<g>
			<path fill="#FFFFFF" d="M65.865,22.396c0.695,0.707,1.289,1.633,1.785,2.782c0.482,1.149,0.721,2.249,0.721,3.312v39.583
				c0,1.01-0.334,1.852-0.988,2.512c-0.662,0.66-1.498,1.018-2.514,1.057H15.211c-1.026,0-1.868-0.35-2.522-1.057
				c-0.658-0.707-1.012-1.547-1.06-2.512V11.937c0-1.021,0.35-1.852,1.06-2.516c0.707-0.664,1.539-1.021,2.522-1.062h33.107
				c0.969,0,2.047,0.245,3.244,0.726c1.184,0.488,2.109,1.083,2.775,1.791L65.865,22.396z M63.674,66.945V31.997H48.318
				c-1.025,0-1.869-0.35-2.525-1.062c-0.654-0.707-1.01-1.516-1.057-2.445V13.063H16.327v53.882H63.674z M49.436,13.392v13.904
				H63.34c-0.217-0.751-0.488-1.258-0.801-1.52L50.957,14.191C50.699,13.876,50.191,13.614,49.436,13.392z"/>
		</g>
		<polygon fill="#FFFFFF" points="52.436,46.119 40.113,33.422 27.565,46.119 36.619,46.119 36.619,61.146 43.381,61.146 
			43.381,46.119 		"/>
	</g>
</g>
<g id="Layer_1_copy_5">
</g>
<g id="Layer_1_copy_4">
</g>
<g id="Layer_1_copy_3">
</g>
</svg>
